HIERARCHY
ROOT Hips
{
  OFFSET 267.745 86.9975 -272.335
  CHANNELS 6 Xposition Yposition Zposition Zrotation Xrotation Yrotation
  JOINT LeftUpLeg
  {
    OFFSET 8.64259 1.95398 -2.38835
    CHANNELS 3 Zrotation Xrotation Yrotation
    JOINT LeftLeg
    {
      OFFSET 43.7702 0 0
      CHANNELS 3 Zrotation Xrotation Yrotation
      JOINT LeftFoot
      {
        OFFSET 40.6238 0 0
        CHANNELS 3 Zrotation Xrotation Yrotation
        JOINT LeftToeBase
        {
          OFFSET 12.7242 0 0
          CHANNELS 3 Zrotation Xrotation Yrotation
          End Site
          {
            OFFSET 0 0 0
          }
        }
      }
    }
  }
  JOINT RightUpLeg
  {
    OFFSET -8.2249 1.95398 -2.59336
    CHANNELS 3 Zrotation Xrotation Yrotation
    JOINT RightLeg
    {
      OFFSET 43.5653 0 0
      CHANNELS 3 Zrotation Xrotation Yrotation
      JOINT RightFoot
      {
        OFFSET 40.6238 0 0
        CHANNELS 3 Zrotation Xrotation Yrotation
        JOINT RightToeBase
        {
          OFFSET 12.7242 0 0
          CHANNELS 3 Zrotation Xrotation Yrotation
          End Site
          {
            OFFSET 0 0 0
          }
        }
      }
    }
  }
  JOINT Spine
  {
    OFFSET 0.165834 0.87714 6.61349
    CHANNELS 3 Zrotation Xrotation Yrotation
    JOINT Spine1
    {
      OFFSET 7.38963 1.71661e-005 0
      CHANNELS 3 Zrotation Xrotation Yrotation
      JOINT Spine2
      {
        OFFSET 11.9445 1.14441e-005 0
        CHANNELS 3 Zrotation Xrotation Yrotation
        JOINT Spine3
        {
          OFFSET 14.7254 4.19617e-005 0
          CHANNELS 3 Zrotation Xrotation Yrotation
          JOINT Spine4
          {
            OFFSET 10.9679 0 0
            CHANNELS 3 Zrotation Xrotation Yrotation
            JOINT RightShoulder
            {
              OFFSET 2.46616 -1.6653 3.69651
              CHANNELS 3 Zrotation Xrotation Yrotation
              JOINT RightArm
              {
                OFFSET 13.0012 0 0
                CHANNELS 3 Zrotation Xrotation Yrotation
                JOINT RightForeArm
                {
                  OFFSET 28.7848 1.52588e-005 0
                  CHANNELS 3 Zrotation Xrotation Yrotation
                  JOINT RightHand
                  {
                    OFFSET 26.5688 1.52588e-005 0
                    CHANNELS 3 Zrotation Xrotation Yrotation
                    End Site
                    {
                      OFFSET 0 0 0
                    }
                  }
                }
              }
            }
            JOINT LeftShoulder
            {
              OFFSET 2.38034 -1.29275 -3.7523
              CHANNELS 3 Zrotation Xrotation Yrotation
              JOINT LeftArm
              {
                OFFSET 16.3182 6.10352e-005 0
                CHANNELS 3 Zrotation Xrotation Yrotation
                JOINT LeftForeArm
                {
                  OFFSET 27.0901 0 0
                  CHANNELS 3 Zrotation Xrotation Yrotation
                  JOINT LeftHand
                  {
                    OFFSET 24.5451 1.52588e-005 0
                    CHANNELS 3 Zrotation Xrotation Yrotation
                    End Site
                    {
                      OFFSET 0 0 0
                    }
                  }
                }
              }
            }
            JOINT Neck
            {
              OFFSET 5.0226 -0.0266342 0
              CHANNELS 3 Zrotation Xrotation Yrotation
              JOINT Head
              {
                OFFSET 6.69364 2.86102e-005 0
                CHANNELS 3 Zrotation Xrotation Yrotation
                End Site
                {
                  OFFSET 0 0 0
                }
              }
            }
          }
        }
      }
    }
  }
}
MOTION
Frames:	9
Frame Time:	0.0416667
-23.1743 88.7438 27.1504 94.8486 53.2729 85.835 177.929 39.6751 86.7327 -68.6474 18.4004 2.63669 48.8969 -5.05838 5.20147 48.7116 -1.93198 4.98531 172.187 20.4145 90.8535 -58.8964 -14.0138 1.22106 64.5839 0.256242 6.29836 58.5164 -5.77089 8.67887 0.155966 10.505 -90.0048 5.86255 0.309537 -0.0186967 -5.80836 0.308427 -0.0322987 -28.3438 0.30086 0.0752028 -8.33113 0.300859 0.0752066 100.806 -49.526 -84.3024 25.022 -12.1089 -6.51155 -6.96729 -1.37153 -52.9826 -9.4549 0.133712 -7.13758 -88.0548 -55.4476 82.3268 -13.9789 0.750123 -4.98418 -0.326867 12.692 -17.9702 7.3115 -0.567287 -10.0431 18.7233 10.3413 -12.9235 -22.4189 9.09341 30.2208 
-36.9914 88.369 42.1486 92.1569 57.7457 90.0727 174.375 34.1102 93.0799 -89.5747 16.2339 3.85659 50.4703 -1.78252 14.0256 46.4871 -1.89041 2.21648 171.146 32.0576 92.9632 -52.4637 -15.2816 4.33408 65.4746 -5.01184 -6.71169 42.3394 -3.17869 4.90255 -0.256237 10.3177 -90.2701 6.23687 -0.625956 -0.510872 -5.43402 -0.647831 -0.482829 -27.9691 -0.443481 -0.675383 -7.95642 -0.443487 -0.675378 100.01 -51.9276 -85.4532 27.5616 -10.2255 0.153692 -13.2405 -13.7633 -42.0327 -11.8768 -0.240233 -2.93179 -87.5057 -54.5377 82.9634 -10.1916 -2.25528 -19.4294 1.93578 7.44556 -26.9155 12.7097 -0.953192 -10.8796 18.9355 15.9236 -16.2494 -31.0656 11.2261 38.4281 
-52.3383 92.5579 57.0408 85.8719 57.3246 93.3647 175.23 24.3393 90.918 -75.6016 18.9735 4.80809 53.4727 -0.497645 11.7532 49.1206 -2.36587 -1.85842 176.948 35.1699 85.3046 -25.2651 -13.0784 2.38938 44.7561 14.6522 18.2919 23.6075 1.08208 0.778626 -0.506419 10.2589 -89.8223 6.36037 -0.936315 0.379749 -5.31033 -0.918667 0.420587 -27.8482 -1.00716 0.0807719 -7.83554 -1.00716 0.0807603 99.502 -50.4783 -86.3045 33.8572 -14.8535 6.33742 -5.40286 -5.81581 -38.3049 -7.10032 0.00809632 -5.57085 -87.5676 -53.9511 82.7817 -4.46714 -2.8631 -26.3809 8.67477 3.72028 -52.3352 12.8237 -1.03091 -11.419 23.2532 22.8451 -19.879 -41.4855 12.5402 48.6416 
-67.5637 92.9122 70.8107 83.4393 50.3317 94.7843 178.16 19.2344 87.9428 -57.2006 23.7059 4.32751 52.5712 -3.67106 4.60449 56.0246 -3.83308 -4.71977 174.348 39.2605 85.431 -40.3125 -14.9062 2.10159 42.8427 14.1882 16.8656 48.4466 -4.89883 -0.735167 0.142975 10.1297 -89.5527 6.60992 0.475937 0.863681 -5.06125 0.51349 0.841893 -27.5938 0.194383 0.966779 -7.58116 0.194395 0.966778 98.1472 -47.1744 -88.6562 34.9065 -16.792 3.28838 -2.54945 -3.96099 -35.5358 -9.10645 0.0428506 -6.11966 -87.2799 -54.5554 83.2912 -3.24716 -0.505031 -24.52 11.7454 0.957837 -67.0505 17.4721 -1.04503 -9.82562 20.7385 30.0935 -18.8471 -46.9329 13.7342 55.4193 
-82.5047 88.3345 84.3107 86.8109 47.5554 93.7544 178.102 24.4731 85.9903 -57.1933 27.7819 4.17989 63.1124 8.26711 20.1012 58.4499 -3.17356 2.01447 173.16 37.2631 85.4057 -83.461 -18.6521 -1.52605 47.6973 10.6495 14.3679 49.42 -4.67257 4.47074 0.595368 9.91795 -89.746 7.03493 1.29805 0.445018 -4.6354 1.31637 0.387436 -27.1742 1.10428 0.814595 -7.16151 1.10427 0.814584 98.1789 -43.1611 -88.9563 34.7895 -12.8885 -0.784702 -1.17478 -1.50099 -38.8327 -10.7634 -0.106886 -4.19786 -86.7585 -58.3444 84.5662 -8.47312 -0.246946 -16.8029 8.89449 6.32471 -45.9674 13.8641 -1.09405 -11.5852 12.9707 34.9125 -15.98 -48.3119 14.156 59.8736 
-96.2297 87.8189 97.2015 88.9051 46.3791 90.7943 176.58 31.2903 83.8132 -48.6133 26.7491 4.12809 61.0254 7.61571 27.6736 49.281 -2.36978 -1.26894 176.59 20.4916 85.2332 -85.9858 -27.5939 -3.0253 49.7452 9.07312 11.5753 59.7473 -6.20337 7.62905 1.09902 9.87637 -89.5813 7.11331 2.37486 0.719831 -4.55562 2.40425 0.614554 -27.1029 2.04871 1.40053 -7.09025 2.04872 1.40052 98.672 -41.7782 -88.226 32.8338 -14.9817 -4.67583 -1.25179 -0.883735 -40.915 -11.282 0.0416346 -5.83094 -87.2292 -63.5196 84.6283 -7.26319 0.484947 -6.52985 1.43026 14.6569 -21.9841 11.5103 -0.685716 -9.2557 8.68503 34.7443 -12.0053 -46.8777 14.2015 58.4163 
-110.058 91.2683 113.188 81.6229 52.3521 95.5129 175.952 37.8503 86.95 -24.577 29.5472 3.18179 39.3824 -13.7068 -3.56775 49.6515 -1.86065 6.70154 176.014 12.9136 91.6279 -60.5373 -19.4678 -0.978836 53.7648 8.11406 18.2666 52.8833 -5.56663 2.81296 0.933765 9.70011 -89.4793 7.4671 2.09007 0.925057 -4.20242 2.12877 0.832134 -26.7449 1.71546 1.51054 -6.73223 1.71544 1.51053 99.3406 -43.1641 -86.9769 30.4766 -20.0546 -5.1104 -2.99294 -0.120829 -44.4349 -7.98468 0.194216 -8.48727 -87.2809 -61.4676 84.2871 -10.2818 -0.749559 0.841661 -1.64391 11.7533 -14.9418 9.18796 -0.562843 -9.03077 12.3257 32.2136 -12.5403 -47.1193 12.8477 55.8824 
-124.24 89.4861 128.008 84.3861 60.6823 92.3858 174.432 42.2567 85.5828 -50.928 23.3062 3.25713 45.8569 -8.49393 -1.0973 57.9452 -2.11399 8.28854 174.265 11.3198 93.928 -49.8475 -10.7001 1.34364 61.195 6.94005 24.2671 36.3092 -2.09933 2.23389 0.65416 10.0857 -89.7488 6.69622 1.41361 0.439318 -4.97405 1.43158 0.376661 -27.5131 1.21622 0.843909 -7.50049 1.21621 0.843902 100.159 -44.1336 -85.5402 31.0909 -19.8086 -0.822321 -3.7725 -0.916044 -44.4879 -7.46423 0.164564 -8.32421 -88.2537 -59.1752 82.6385 -10.5042 -0.590686 -0.500016 0.352365 13.0061 -18.7468 8.50566 -0.642135 -10.206 12.7514 27.751 -14.7932 -44.0438 11.5945 53.1213 
-138.35 86.7805 142.82 84.5436 63.1487 93.9024 171.22 41.143 91.55 -83.9588 17.0599 3.87961 50.9512 -2.20393 10.9756 51.5208 -1.89505 7.66337 173.47 24.8633 96.1745 -56.5237 -13.1775 2.51683 73.3843 -4.2265 7.16429 36.7589 -2.04997 4.26555 0.598726 10.0645 -90.2104 6.75191 1.10587 -0.450168 -4.91854 1.08498 -0.498425 -27.4584 1.19004 -0.0969457 -7.44578 1.19004 -0.0969557 99.9976 -45.7793 -85.7336 32.7886 -12.1106 -0.989067 -2.72056 -7.93997 -29.9469 -9.2811 -0.0128353 -5.32562 -87.8581 -58.9862 83.1533 -6.96885 -0.546946 -9.15702 1.88362 11.2863 -24.6772 9.87899 -0.795534 -10.9266 11.6931 22.2094 -10.8115 -34.7967 11.7621 45.8678 
